<svg width="311" height="311" viewBox="0 0 311 311" fill="none" xmlns="http://www.w3.org/2000/svg">
<g clip-path="url(#clip0_49_2433)">
<g clip-path="url(#clip1_49_2433)">
<path d="M400.526 96.547C384.746 77.2122 353.756 66.8361 332.495 83.1708C311.264 99.485 312.542 128.588 313.494 152.783C314.208 170.958 304.052 187.544 286.69 194.407C275.285 198.915 250.53 200.488 245.108 185.518C262.557 180.94 284.687 179.908 294.937 161.595C300.803 151.113 291.792 115.183 278.545 129.713C305.418 128.026 292.85 162.847 280.609 171.733C266.254 182.149 246.322 183.479 230.998 180.921C224.659 179.864 211.397 173.47 217.601 166.42C223.574 192.395 268.808 176.196 280.367 165.535C299.028 148.32 276.241 125.632 269.393 141.55C276.117 136.845 283.128 137.802 285.899 146.051C290.016 158.314 274.566 167.583 265.846 171.895C256.695 176.419 244.927 179.397 235.031 175.287C237.756 166.191 242.903 155.605 249.627 147.203C258.221 136.46 273.668 136.116 280.48 127.127C256.059 129.144 246.211 147.529 234.222 166.14C233.501 167.257 233.145 173.723 231.921 174.142C226.909 175.858 220.221 168.135 219.313 164.087C218.562 160.736 222.765 148.175 222.856 142.75C223.004 133.928 224.589 124.278 220.473 116.138C214.286 103.907 216.464 106.245 226.904 97.7866C231.706 93.893 235.36 88.8402 240.057 84.9274C241.323 83.8732 244.238 79.1917 245.492 78.8499C249.489 77.7584 250.593 82.4695 253.337 82.0397C286.148 76.8963 253.78 36.3206 241.19 54.323C236.821 60.5687 242.379 63.7685 240.077 68.6248C237.461 74.14 226.267 78.6285 221.4 81.947C214.059 86.947 201.027 103.011 195.503 86.2687C193.319 79.6517 202.012 71.0572 206.165 63.5773C208.1 60.0905 210.59 52.3334 213.783 49.9334C216.972 47.5348 220.223 50.6443 223.46 48.021C242.563 32.5445 201.223 6.05545 200.827 35.6674C200.799 37.7623 204.501 39.9584 204.588 42.4995C204.671 44.9649 200.747 51.4066 199.371 54.1473C197.376 58.1167 192.241 69.2501 188.481 71.8859C184.386 74.7573 187.81 78.0879 182.096 72.3886C177.742 68.0473 170.205 66.7799 164.299 66.1833C153.543 65.0969 140.074 63.5878 129.203 66.7186C103.456 74.1269 79.958 95.7467 79.7214 124.856C79.6367 134.999 82.1427 144.834 85.9003 154.118C88.0526 159.437 98.3978 167.481 99.3269 170.683C100.093 171.198 100.786 171.8 101.406 172.483C74.9745 194.772 38.247 209.344 17.8949 237.466C35.8744 235.953 112.447 169.366 123.693 189.325C128.037 197.034 109.09 231.704 107.17 236.242C99.196 255.102 86.655 276.05 82.363 295.509C82.0903 296.737 90.6254 284.08 90.0348 285.373C95.974 272.392 104.037 260.102 110.342 247.133C114.145 239.31 118.165 231.852 122.638 223.988C125.945 218.18 130.831 201.798 136.539 198.204C140.283 195.849 156.973 197.421 162.94 197.359C179.15 197.185 187.784 191.992 202.199 182.601C215.274 174.081 209.464 173.097 222.062 180.508C230.601 185.531 229.704 186.392 236.203 192.374C249.711 204.797 269.184 211.82 287.407 207.102C319.458 198.802 328.222 158.245 326.541 130.19C325.248 108.629 334.123 78.0545 362.683 84.5841C370.131 86.2859 376.828 88.6378 382.832 93.5936C388.173 97.9996 397.969 124.049 405.459 116.118C408.948 112.421 403.328 99.4433 400.526 96.547Z" fill="#3D1E1B"/>
<path d="M254.15 149.733C251.85 151.86 232.856 174.88 240.828 176.837C242.444 177.234 247.139 162.261 249.727 158.992C256.516 150.419 267.871 145.154 273.557 136.141C265.934 138.759 259.987 144.753 254.15 149.733Z" fill="black"/>
<path d="M281.504 135.785C300.431 146.828 282.58 165.497 270.806 172.523C258.954 179.593 222.381 187.198 217.603 166.42C211.4 173.469 224.661 179.863 231 180.92C247.287 183.639 268.164 181.806 282.876 170.088C291.109 163.531 297.076 153.562 294.525 142.848C292.197 133.064 279.211 122.695 273.56 136.142C276.326 135.371 278.951 136.158 281.504 135.785Z" fill="#9BBB59"/>
<path d="M277.806 130.135C255.101 133.5 240.779 156.082 235.028 175.283C236.265 176.051 239.142 176.752 240.591 176.851C229.084 158.177 276.762 139.983 277.806 130.135Z" fill="#9BBB59"/>
<path d="M213.506 25.1585C222.914 27.2955 234.257 46.1674 218.497 38.9972C210.048 35.1544 200.269 18.1212 213.506 25.1585Z" fill="#DEDEDE"/>
<path d="M212.155 38.9287C215.974 41.6601 220.407 43.2593 224.613 43.7425C216.215 52.5923 203.85 37.5536 202.219 30.2085C204.72 33.92 208.132 36.9092 212.155 38.9287Z" fill="#A3A3A3"/>
<path d="M375.616 82.2632C384.326 84.8086 395.338 91.9577 399.834 100.012C402.307 104.443 405.21 119.305 396.277 112.415C393.669 110.405 390.836 98.1778 387.009 94.2468C382.877 90.0005 378.304 87.2563 373.096 85.0042C362.057 80.2324 351.898 80.7111 341.295 86.5789C313.714 101.838 326.004 148.647 317.104 174.834C310.565 194.064 289.324 212.28 267.368 205.653C256.478 202.369 238.685 197.287 234.798 185.161C242.288 184.002 251.377 196.595 259.962 198.506C281.765 203.358 305.463 192.05 314.09 170.998C324.116 146.543 307.928 115.937 326.596 92.7349C338.646 77.7544 358.812 73.4941 375.616 82.2632Z" fill="#9BBB59"/>
<path d="M263.972 65.5481C271.487 81.3702 254.732 72.9305 249.996 64.3666C239.875 46.0652 258.417 50.613 263.972 65.5481Z" fill="#DEDEDE"/>
<path d="M211.769 47.2901C206.589 59.9183 198.631 71.2065 191.108 82.3671C183.553 77.0336 204.418 52.0314 206.945 44.1338C208.377 45.1576 210.627 46.2228 211.769 47.2901Z" fill="#DEDEDE"/>
<path d="M242.842 58.0228C247.211 65.7648 251.433 74.6672 260.102 78.2556C249.775 84.1595 238.148 58.4549 242.842 58.0228Z" fill="#A3A3A3"/>
<path d="M245.393 75.1696C239.928 82.4249 204.348 118.152 198.059 110.942C191.396 103.306 238.704 68.1434 245.393 75.1696Z" fill="#DEDEDE"/>
<path d="M180.543 75.7295C170.587 69.7239 156.596 70.6973 146.036 70.2889C128.761 69.6221 112.799 77.3604 101.896 90.3761C86.2433 109.056 84.6697 134.097 91.0795 157.988C79.6133 133.614 80.7001 99.4703 103.543 81.0351C119.608 68.072 164.934 59.0067 180.543 75.7295Z" fill="#9BBB59"/>
<path d="M183.14 80.2321C173.393 83.6824 154.32 77.6655 142.274 77.5144C128.479 77.3388 114.707 88.6689 106.711 99.3568C91.6077 119.547 94.6356 143.332 99.1401 166.753C82.1608 157.66 92.4598 107.568 101.992 94.364C114.3 77.3148 130.427 74.2408 148.592 75.2467C160.723 75.9166 171.102 72.9518 183.14 80.2321Z" fill="#9BBB59"/>
<path d="M186.379 85.8363C192.903 87.1615 199.338 90.8954 201.671 97.4663C159.076 74.7361 105.799 91.4872 98.3753 142.938C96.632 120.735 106.365 97.8522 125.886 85.7786C140.827 76.5402 171.277 80.1248 186.379 85.8363Z" fill="#9BBB59"/>
<path d="M183.827 93.6175C189.207 94.0379 194.15 96.3691 198.227 99.8826C170.947 87.2553 140.771 94.9018 120.331 115.353C107.252 128.435 107.396 146.384 105.226 163.179C98.2753 152.051 102.22 129.252 108.95 117.971C124.779 91.4316 155.999 85.5747 183.827 93.6175Z" fill="#9BBB59"/>
<path d="M183.83 98.8211C183.158 101.86 181.263 104.87 180.041 107.746C178.184 104.513 177.624 100.881 177.672 97.171C180.187 96.8173 181.939 97.6274 183.83 98.8211Z" fill="#C2D69B"/>
<path d="M188.924 99.2535C187.049 112.036 180.924 125.406 176.156 137.92C172.54 147.41 168.511 157.136 162.556 165.492C158.458 171.239 140.967 192.648 132.816 191.535C124.218 190.362 136.593 181.486 138.936 179.431C146.292 172.974 152.833 167.782 158.418 160.345C170.12 144.769 174.597 122.516 184.733 105.04C186.29 102.354 187.356 100.366 188.924 99.2535Z" fill="#9BBB59"/>
<path d="M195.168 102.325C186.502 123.147 182.996 142.733 171.717 163.756C165.964 174.476 154.609 180.8 148.91 190.027C141.889 201.394 157.711 186.652 161.568 183.944C154.724 195.101 149.159 198.57 137.945 192.679C168.353 168.673 182.441 137.649 192.358 100.64C193.34 101.075 194.225 101.921 195.168 102.325Z" fill="#C2D69B"/>
<path d="M174.395 97.2252C174.479 104.495 180.279 111.133 175.584 117.423C171.846 113.224 165.515 97.7019 174.395 97.2252Z" fill="#C2D69B"/>
<path d="M167.579 97.7273C163.864 106.992 179.156 123.423 170.843 129.896C162.739 136.21 150.096 93.6643 167.579 97.7273Z" fill="#C2D69B"/>
<path d="M192.496 147.347C186.998 158.119 179.791 167.938 174.641 178.905C183.491 158.904 191.97 122.145 210.95 110.359C205.232 122.825 199.384 135.771 192.496 147.347Z" fill="#C2D69B"/>
<path d="M216.887 118.084C202.371 143.432 192.275 178.484 167.32 195.814C174.736 179.107 188.302 162.458 197.258 145.827C201.649 137.674 205.142 123.266 211.065 116.91C214.726 112.982 216.153 110.043 216.887 118.084Z" fill="#9BBB59"/>
<path d="M157.468 98.3558C152.885 107.601 156.865 122.96 163.352 130.606C168.438 136.603 168.78 142.259 160.597 135.383C154.353 130.137 141.852 97.6047 157.468 98.3558Z" fill="#C2D69B"/>
<path d="M147.516 100.428C146.923 109.386 147.051 118.928 151.072 127.162C154.455 134.092 165.905 140.989 162.131 148.218C154.966 143.01 125.63 101.045 147.516 100.428Z" fill="#C2D69B"/>
<path d="M200.425 116.002C197.599 123.519 193.252 130.452 189.189 137.065C190.404 130.649 194.493 116.318 200.425 116.002Z" fill="#C2D69B"/>
<path d="M219.947 133.036C204.062 150.165 201.23 175.247 179.538 188.759C192.291 165.643 206.883 144.695 218.549 120.859C219.904 124.66 220.369 128.891 219.947 133.036Z" fill="#9BBB59"/>
<path d="M137.817 106.759C133.636 123.294 164.922 149.963 156.251 157.979C143.04 152.855 127.509 129.04 129.723 114.063C130.493 108.861 134.564 101.247 137.817 106.759Z" fill="#C2D69B"/>
<path d="M136.6 144.642C141.576 151.323 145.965 157.831 154.037 160.731C145.766 171.023 107.884 126.52 126.362 112.7C128.069 123.712 132.224 134.819 136.6 144.642Z" fill="#C2D69B"/>
<path d="M217.341 149.734C206.734 168.602 198.836 181.584 179.987 192.605C198.63 180.481 212.734 158.649 219.635 137.69C220.841 142.126 220.038 146.535 217.341 149.734Z" fill="#9BBB59"/>
<path d="M188.608 139.237C187.437 141.087 187.144 141.555 188.608 139.237Z" fill="#00CC00"/>
<path d="M122.17 137.041C128.772 148.673 136.092 160.265 148.243 166.701C141.1 174.939 103.006 137.836 117.975 124.579C119.111 128.817 120.514 132.981 122.17 137.041Z" fill="#C2D69B"/>
<path d="M215.402 163.89C212.698 167.951 209.834 173.127 206.333 175.127C212.015 168.168 216.75 160.4 219.211 151.709C219.603 156.198 218.258 160.575 215.402 163.89Z" fill="#9BBB59"/>
<path d="M182.257 152.214C176.423 165.952 172.001 187.109 158.104 194.819C167.677 181.355 173.688 165.581 182.257 152.214Z" fill="#C2D69B"/>
<path d="M122.198 152.588C127.005 160.214 134.447 167.247 141.937 172.553C132.968 180.377 105.419 149.438 111.942 138.113C114.493 143.488 117.828 148.851 122.198 152.588Z" fill="#C2D69B"/>
<path d="M114.78 157.665C120.626 164.534 127.94 174.142 135.867 177.524C127.9 180.021 107.163 161.989 110.219 151.783C111.247 154.343 113.523 155.795 114.78 157.665Z" fill="#C2D69B"/>
<path d="M124.271 176.741C126.717 178.21 129.298 179.826 131.47 181.466C124.179 178.597 106.757 171.018 109.356 161.953C113.339 167.776 118.484 172.716 124.271 176.741Z" fill="#C2D69B"/>
<path d="M105.046 167.32C105.706 167.516 103.454 166.834 105.046 167.32Z" fill="#00CC00"/>
<path d="M128.461 184.001C122.225 190.039 104.202 178.82 108.503 170.657C113.947 176.891 121.784 179.422 128.461 184.001Z" fill="#C2D69B"/>
<path d="M178.688 193.66C176.526 194.947 175.795 196.269 173.273 196.478C175.031 195.556 177.149 194.603 178.688 193.66Z" fill="#00CC00"/>
<path d="M108.427 182.825C82.4212 200.343 54.2682 220.164 25.4094 232.333C31.4117 224.518 42.8138 217.62 51.3278 211.555C61.2587 204.478 102.512 166.107 108.427 182.825Z" fill="#DEDEDE"/>
<path d="M135.201 195.667C122.743 218.089 108.878 240.139 99.0598 263.873C107.089 240.151 122 216.067 126.461 191.463C129.237 192.789 132.846 193.922 135.201 195.667Z" fill="#DEDEDE"/>
</g>
</g>
<defs>
<clipPath id="clip0_49_2433">
<rect width="311" height="311" fill="white"/>
</clipPath>
<clipPath id="clip1_49_2433">
<rect width="343.363" height="297.726" fill="white" transform="translate(84.7417 -12) rotate(15)"/>
</clipPath>
</defs>
</svg>
