<svg width="220" height="64" viewBox="0 0 220 64" fill="none" xmlns="http://www.w3.org/2000/svg">
<g clip-path="url(#clip0_20_1713)">
<path d="M68.8852 4.7818C64.6984 1.7636 57.9532 1.34954 54.5807 5.75134C51.2131 10.1474 53.0259 15.8937 54.511 20.6766C55.6264 24.2696 54.4854 28.1272 51.3848 30.4279C49.3481 31.9391 44.4876 33.5786 42.6034 30.8779C45.8436 29.0291 50.2089 27.6382 51.276 23.4308C51.8868 21.0224 48.1639 14.3261 46.2955 17.9384C51.5729 16.1627 50.9261 23.7927 48.9568 26.2233C46.6469 29.0727 42.7367 30.4057 39.539 30.7149C38.2162 30.843 35.2251 30.2755 36.0869 28.535C38.6702 33.4048 46.8384 27.7468 48.5766 24.9978C51.3827 20.5595 45.6169 17.2465 45.101 20.7933C46.1922 19.4934 47.6439 19.3092 48.6387 20.8089C50.1175 23.0387 47.5275 25.7177 46.0166 27.046C44.4308 28.4397 42.2397 29.6647 40.0431 29.3733C40.1005 27.4102 40.562 25.0195 41.4554 22.981C42.5971 20.3745 45.6641 19.4788 46.5436 17.3182C41.7737 19.0285 40.7906 23.2289 39.3918 27.5892C39.3076 27.8509 39.5826 29.1619 39.3605 29.3112C38.4513 29.9222 36.7021 28.7372 36.304 27.9771C35.9747 27.3478 36.1419 24.6132 35.8698 23.5245C35.4271 21.7539 35.2272 19.741 33.9694 18.335C32.0791 16.2227 32.6392 16.5731 34.2717 14.3243C35.0226 13.2893 35.4821 12.0841 36.2108 11.0509C36.4073 10.7725 36.7389 9.68115 36.9711 9.54574C37.7111 9.11368 38.1838 9.99581 38.7088 9.76308C44.9873 6.97892 36.3504 0.604906 34.799 4.87573C34.2608 6.35743 35.5421 6.69922 35.3423 7.79269C35.115 9.03462 33.1193 10.5307 32.3246 11.4543C31.126 12.8462 29.3826 16.7534 27.3832 13.7041C26.5929 12.499 27.8693 10.3165 28.2985 8.59968C28.4983 7.79948 28.5805 6.11635 29.0898 5.4659C29.5983 4.81598 30.4142 5.26318 30.9204 4.56577C33.9078 0.45097 24.2327 -2.62828 25.7385 3.30923C25.8449 3.72929 26.702 3.96985 26.8554 4.47288C27.0039 4.96105 26.5648 6.45814 26.4366 7.07937C26.2506 7.97924 25.8209 10.4785 25.2109 11.2064C24.5466 11.9993 25.4087 12.4815 23.9624 11.6487C22.8604 11.0144 21.2871 11.1647 20.0754 11.3617C17.8689 11.7204 15.0978 12.14 13.094 13.3474C8.34756 16.206 4.8112 21.7834 6.32186 27.6119C6.84785 29.643 7.87479 31.4739 9.1222 33.1275C9.83683 34.0751 12.3337 35.1284 12.6907 35.7183C12.8712 35.7802 13.0418 35.8634 13.2023 35.9667C9.11567 41.8348 2.55955 46.7125 -0.000488281 53.4207C3.50978 52.1559 15.2408 34.753 18.5554 38.1385C19.8356 39.4462 17.9067 47.3872 17.7661 48.3967C17.1827 52.5918 15.7989 57.4484 15.9831 61.5661C15.9943 61.8259 17.0217 58.8403 16.973 59.1302C17.4645 56.2187 18.4173 53.3315 18.9825 50.4031C19.3235 48.6365 19.7274 46.9311 20.1999 45.1204C20.5495 43.783 20.6486 40.2485 21.5965 39.2247C22.2183 38.5539 25.6362 37.9744 26.8246 37.6425C30.0531 36.74 31.4999 35.2403 33.8765 32.5924C36.0321 30.1902 34.8189 30.3045 37.7319 31.1107C39.7065 31.6573 39.5734 31.8772 41.1916 32.7244C44.5547 34.4834 48.82 34.844 52.2074 32.9258C58.1653 29.5517 57.7452 20.9796 55.9079 15.4642C54.4956 11.2257 54.632 4.64195 60.6862 4.41757C62.2649 4.35887 63.7284 4.47027 65.1929 5.13898C66.4956 5.73334 69.8464 10.4135 70.918 8.42801C71.4171 7.50256 69.5999 5.21047 68.8852 4.7818Z" fill="#3D1E1B"/>
<path d="M42.4943 23.2442C42.1486 23.7924 39.5868 29.4085 41.284 29.3727C41.6279 29.3654 41.7643 26.1226 42.1064 25.331C43.0036 23.2547 44.9899 21.5948 45.6432 19.4897C44.2607 20.4209 43.3937 21.9368 42.4943 23.2442Z" fill="black"/>
<path d="M47.2116 18.9928C51.5831 20.186 49.0168 24.8716 47.041 26.9057C45.0521 28.9528 38.1539 32.4302 36.0875 28.5345C35.2257 30.2751 38.2168 30.8425 39.5396 30.7144C42.9382 30.3857 47.0102 28.9019 49.3216 25.7731C50.6152 24.0221 51.2734 21.711 50.1904 19.7069C49.2018 17.8769 46.0529 16.5004 45.6441 19.4896C46.1552 19.1875 46.7216 19.2042 47.2116 18.9928Z" fill="#9BBB59"/>
<path d="M46.1705 18.0623C41.8154 19.9499 40.1633 25.2284 40.0422 29.3727C40.3303 29.4598 40.9426 29.4457 41.2372 29.3881C37.9393 26.2731 46.489 20.0856 46.1705 18.0623Z" fill="#9BBB59"/>
<path d="M27.7084 0.530651C29.702 0.453944 32.9777 3.61721 29.4461 3.02833C27.5527 2.71289 24.6879 -0.166759 27.7084 0.530651Z" fill="#DEDEDE"/>
<path d="M28.1756 3.35416C29.0846 3.69543 30.0557 3.77761 30.9217 3.64898C29.7178 5.86671 26.4432 3.52401 25.7244 2.1438C26.4226 2.75146 27.264 3.16604 28.1756 3.35416Z" fill="#A3A3A3"/>
<path d="M63.1452 3.26137C65.0211 3.30363 67.6033 4.14246 68.9324 5.51092C69.6635 6.26391 71.0387 9.07781 68.8857 8.1795C68.2572 7.91755 67.0369 5.62625 66.0622 5.04572C65.0097 4.4185 63.9493 4.11506 62.7885 3.9439C60.3282 3.5815 58.3246 4.22099 56.5207 5.96099C51.8283 10.4862 56.7884 19.1805 56.4122 24.8889C56.1354 29.0809 52.8675 33.8577 48.1273 33.7089C45.7762 33.6359 41.9502 33.573 40.5249 31.3584C41.9589 30.726 44.4485 32.7553 46.2654 32.6776C50.8801 32.4798 55.0085 28.9518 55.6049 24.2839C56.2987 18.8611 51.4273 13.6129 53.9142 7.97782C55.5194 4.3397 59.3192 2.40898 63.1452 3.26137Z" fill="#9BBB59"/>
<path d="M39.9504 5.89855C42.2983 8.6574 38.5 7.86815 37.0955 6.41071C34.0945 3.29598 38.0416 3.21197 39.9504 5.89855Z" fill="#DEDEDE"/>
<path d="M28.5461 5.04541C28.1874 7.84575 27.2019 10.5271 26.2966 13.1597C24.5021 12.4985 27.3316 6.38622 27.4135 4.6731C27.7545 4.80094 28.261 4.8933 28.5461 5.04541Z" fill="#DEDEDE"/>
<path d="M35.327 5.52637C36.6141 6.83926 37.9337 8.39193 39.8574 8.64475C38.1106 10.3772 34.4125 5.86398 35.327 5.52637Z" fill="#A3A3A3"/>
<path d="M36.7542 8.81563C36.051 10.5577 30.8563 19.6006 29.2142 18.4967C27.4747 17.3278 35.0421 7.76991 36.7542 8.81563Z" fill="#DEDEDE"/>
<path d="M23.8309 12.3992C21.5208 11.7323 18.7784 12.6757 16.6473 13.1595C13.161 13.951 10.3868 16.3517 8.90559 19.5358C6.77892 24.1059 7.80482 29.1931 10.3638 33.6233C6.76901 29.3674 5.15868 22.4875 8.7347 17.5813C11.2499 14.1313 19.8181 9.89365 23.8309 12.3992Z" fill="#9BBB59"/>
<path d="M24.5908 13.1596C22.8286 14.3708 18.6968 14.1897 16.2827 14.8044C13.5178 15.5078 11.3734 18.5088 10.3483 21.0722C8.41207 25.9147 10.2898 30.5046 12.4431 34.9429C8.56496 34.0352 7.94113 23.4757 9.13844 20.3273C10.6843 16.2621 13.7411 14.7846 17.4233 14.013C19.8822 13.4975 21.7967 12.3495 24.5908 13.1596Z" fill="#9BBB59"/>
<path d="M25.5374 14.106C26.9116 14.0215 28.3967 14.423 29.2144 15.6109C19.4898 13.3499 9.74459 19.5488 11.0155 30.2257C9.47898 25.8832 10.1983 20.7902 13.4513 17.3329C15.9412 14.6873 22.2153 13.7733 25.5374 14.106Z" fill="#9BBB59"/>
<path d="M25.4443 15.7971C26.5414 15.5931 27.6534 15.7943 28.6558 16.278C22.531 15.2156 16.9128 18.3588 13.9246 23.5391C12.0124 26.8529 13.0018 30.4313 13.4673 33.9029C11.4833 32.0518 11.051 27.2855 11.7914 24.6714C13.5327 18.5216 19.4554 15.68 25.4443 15.7971Z" fill="#9BBB59"/>
<path d="M25.7236 16.8367C25.7521 17.4799 25.5345 18.1828 25.4445 18.8228C24.9005 18.2762 24.5942 17.5806 24.4053 16.8367C24.8887 16.6314 25.2819 16.6995 25.7236 16.8367Z" fill="#C2D69B"/>
<path d="M26.764 16.6504C27.0737 19.3046 26.5657 22.3038 26.2832 25.0592C26.069 27.1489 25.7846 29.3079 25.0423 31.296C24.5314 32.6637 22.1835 37.8774 20.496 38.0914C18.7158 38.3173 20.7125 35.8815 21.0705 35.3456C22.1942 33.6617 23.223 32.2741 23.9405 30.4893C25.4441 26.7507 25.1474 22.065 26.2367 18.0309C26.404 17.4109 26.5104 16.9567 26.764 16.6504Z" fill="#9BBB59"/>
<path d="M28.1755 16.9299C27.559 21.554 27.907 25.6547 26.7791 30.4589C26.2038 32.9088 24.2741 34.78 23.6297 36.9286C22.8357 39.5755 25.2071 35.7832 25.8325 35.0357C25.0626 37.6313 24.1366 38.6222 21.5815 38.0456C26.3705 31.6215 27.524 24.6688 27.524 16.7437C27.7434 16.7781 27.9655 16.8997 28.1755 16.9299Z" fill="#C2D69B"/>
<path d="M23.7534 17.0232C24.1593 18.4712 25.6731 19.487 25.072 20.995C24.1006 20.356 22.0053 17.5938 23.7534 17.0232Z" fill="#C2D69B"/>
<path d="M22.4189 17.4883C22.1726 19.5382 26.1066 22.0023 24.7926 23.7407C23.5118 25.4361 18.7093 17.6125 22.4189 17.4883Z" fill="#C2D69B"/>
<path d="M30.0516 26.068C29.53 28.5145 28.616 30.8622 28.1743 33.3291C28.8715 28.8592 28.5978 21.0609 31.7582 17.6902C31.283 20.4869 30.8079 23.3864 30.0516 26.068Z" fill="#C2D69B"/>
<path d="M33.3572 18.9157C31.8145 24.7572 31.6738 32.3008 27.6167 37.0992C28.204 33.3643 30.0225 29.3116 30.9214 25.5094C31.362 23.6454 31.2887 20.5797 32.1315 18.9929C32.6525 18.0121 32.7804 17.3484 33.3572 18.9157Z" fill="#9BBB59"/>
<path d="M20.4327 18.155C20.0122 20.2475 21.6293 23.1032 23.334 24.2835C24.6709 25.2092 25.042 26.321 23.0395 25.3853C21.5116 24.6715 17.2734 18.841 20.4327 18.155Z" fill="#C2D69B"/>
<path d="M18.5558 19.1018C18.9169 20.9232 19.4531 22.8229 20.6971 24.2527C21.7436 25.4562 24.3999 26.2212 24.0328 27.8676C22.3231 27.2106 14.2174 20.3967 18.5558 19.1018Z" fill="#C2D69B"/>
<path d="M29.9575 19.3811C29.7955 21.0342 29.2982 22.6521 28.8405 24.1907C28.7398 22.8439 28.7897 19.7618 29.9575 19.3811Z" fill="#C2D69B"/>
<path d="M34.7687 21.7392C32.5126 26.0118 33.2894 31.1747 29.6797 35.0357C30.9897 29.7345 32.7832 24.7681 33.8378 19.3811C34.3119 20.0681 34.6312 20.8884 34.7687 21.7392Z" fill="#9BBB59"/>
<path d="M16.9574 20.886C17.0073 24.4135 24.6837 28.0668 23.3808 30.1327C20.4677 29.8162 16.091 25.8895 15.7317 22.7787C15.607 21.698 16.0127 19.9588 16.9574 20.886Z" fill="#C2D69B"/>
<path d="M18.7419 28.5199C20.0934 29.5884 21.3184 30.6537 23.0861 30.8008C21.9848 33.3001 12.0363 26.4366 14.9874 22.6863C15.9178 24.7949 17.3421 26.7917 18.7419 28.5199Z" fill="#C2D69B"/>
<path d="M35.1419 25.2148C34.033 29.5524 33.1503 32.569 29.9753 35.78C33.0502 32.3595 34.6988 27.2426 34.9556 22.6858C35.4338 23.5074 35.5095 24.4313 35.1419 25.2148Z" fill="#9BBB59"/>
<path d="M28.8408 24.656C28.6726 25.1974 28.706 25.0883 28.8408 24.656V24.656Z" fill="#00CC00"/>
<path d="M15.4528 27.7738C17.394 29.7444 19.4766 31.6686 22.2482 32.3039C21.2622 34.3322 11.6676 28.9585 13.9479 25.5085C14.4016 26.2944 14.9047 27.0513 15.4528 27.7738Z" fill="#C2D69B"/>
<path d="M35.5123 28.1468C35.1896 29.103 34.8945 30.2904 34.3022 30.8775C35.0646 29.1829 35.5948 27.3774 35.6211 25.5093C35.9397 26.3851 35.9053 27.3317 35.5123 28.1468Z" fill="#9BBB59"/>
<path d="M28.2668 27.5886C27.8368 30.6457 28.086 35.1096 25.7227 37.3938C26.9142 34.1915 27.2706 30.718 28.2668 27.5886Z" fill="#C2D69B"/>
<path d="M16.2906 30.8786C17.6588 32.1448 19.5217 33.1516 21.3019 33.8107C19.929 35.8541 12.7704 31.1473 13.4673 28.5356C14.2644 29.4728 15.2177 30.3659 16.2906 30.8786Z" fill="#C2D69B"/>
<path d="M15.0806 32.2903C16.616 33.3496 18.5911 34.8778 20.3554 35.129C18.8977 36.0545 13.7907 33.562 13.8548 31.3591C14.1972 31.8157 14.7294 31.984 15.0806 32.2903Z" fill="#C2D69B"/>
<path d="M17.9972 35.5934C18.5644 35.756 19.1666 35.9407 19.6881 36.152C18.0783 35.9691 14.1926 35.3876 14.2265 33.4373C15.3338 34.3875 16.6259 35.099 17.9972 35.5934Z" fill="#C2D69B"/>
<path d="M13.6532 34.74C13.3091 34.7283 13.7954 34.744 13.6532 34.74V34.74Z" fill="#00CC00"/>
<path d="M19.2227 36.8195C18.3004 38.3596 14.1 37.083 14.5221 35.2217C15.9431 36.1758 17.6439 36.2619 19.2227 36.8195Z" fill="#C2D69B"/>
<path d="M29.7722 36.0603C29.4093 36.4331 29.3339 36.7366 28.8413 36.9132C29.1432 36.6348 29.5152 36.3311 29.7722 36.0603Z" fill="#00CC00"/>
<path d="M15.1584 37.657C10.9014 42.5491 6.33887 48.0164 1.22583 51.9927C2.00647 50.1099 3.91476 48.1213 5.29079 46.4538C6.89565 44.5082 13.0821 34.6333 15.1584 37.657Z" fill="#DEDEDE"/>
<path d="M21.1935 38.7893C19.9051 43.936 18.3159 49.0837 17.625 54.3512C17.9592 49.1818 19.6486 43.5718 19.2228 38.4172C19.8482 38.5336 20.6296 38.5667 21.1935 38.7893Z" fill="#DEDEDE"/>
</g>
<path d="M207.852 51.9315C207.852 50.6124 208.111 49.4518 208.629 48.4499C209.163 47.4481 209.914 46.6632 210.883 46.0955C211.868 45.5278 213.037 45.2439 214.389 45.2439C215.441 45.2439 216.385 45.4359 217.22 45.82C218.071 46.204 218.739 46.7217 219.224 47.3729C219.708 48.0074 219.95 48.7088 219.95 49.4769C219.95 50.2784 219.716 50.8461 219.249 51.1801C218.781 51.5141 218.088 51.681 217.17 51.681H211.91C211.91 52.1152 212.077 52.4742 212.411 52.7581C212.761 53.0419 213.346 53.1839 214.164 53.1839C214.581 53.1839 214.965 53.1421 215.316 53.0586C215.683 52.9752 216.051 52.9 216.418 52.8332C216.802 52.7497 217.228 52.708 217.696 52.708C218.364 52.708 218.915 52.9501 219.349 53.4344C219.783 53.9019 220 54.5531 220 55.388C220 56.3732 219.491 57.1414 218.472 57.6924C217.47 58.2434 216.151 58.519 214.515 58.519C213.362 58.519 212.277 58.2935 211.258 57.8427C210.257 57.3918 209.438 56.6822 208.804 55.7137C208.169 54.7285 207.852 53.4678 207.852 51.9315ZM215.967 50.8545C216.218 50.8545 216.301 50.7376 216.218 50.5038C216.151 50.27 215.951 50.0279 215.617 49.7775C215.283 49.527 214.798 49.4017 214.164 49.4017C213.429 49.4017 212.878 49.5604 212.511 49.8776C212.16 50.1949 211.985 50.5205 211.985 50.8545H215.967Z" fill="#F6F0ED"/>
<path d="M200.982 58.7694C199.83 58.7694 198.761 58.6608 197.776 58.4437C196.808 58.21 196.031 57.851 195.447 57.3667C194.862 56.8658 194.57 56.2062 194.57 55.388C194.57 54.67 194.787 54.0772 195.221 53.6096C195.655 53.1421 196.232 52.9083 196.95 52.9083C197.4 52.9083 197.851 52.9834 198.302 53.1337C198.77 53.2673 199.262 53.4009 199.78 53.5345C200.298 53.6681 200.857 53.7349 201.458 53.7349C201.992 53.7349 202.351 53.7098 202.535 53.6597C202.719 53.5929 202.811 53.476 202.811 53.3091C202.811 53.1087 202.694 52.9751 202.46 52.9083C202.243 52.8415 201.867 52.758 201.333 52.6578L199.529 52.3072C198.778 52.1569 198.043 51.9649 197.325 51.7311C196.624 51.4806 196.039 51.1132 195.572 50.629C195.121 50.1448 194.896 49.4852 194.896 48.6503C194.896 47.5148 195.397 46.6298 196.399 45.9953C197.417 45.3607 198.887 45.0435 200.807 45.0435C201.909 45.0435 202.894 45.152 203.762 45.3691C204.647 45.5861 205.349 45.9118 205.866 46.3459C206.384 46.7634 206.643 47.2894 206.643 47.9239C206.66 48.6085 206.476 49.1596 206.092 49.577C205.708 49.9945 205.224 50.2032 204.639 50.2032C204.222 50.2032 203.796 50.1531 203.362 50.0529C202.944 49.936 202.485 49.8191 201.984 49.7023C201.5 49.5687 200.94 49.4935 200.306 49.4768C199.855 49.4434 199.488 49.4685 199.204 49.552C198.92 49.6355 198.778 49.769 198.778 49.9527C198.778 50.1531 198.945 50.295 199.279 50.3785C199.613 50.4453 200.114 50.5372 200.782 50.654L202.56 50.9797C203.646 51.1633 204.505 51.3971 205.14 51.681C205.791 51.9482 206.259 52.3239 206.543 52.8081C206.827 53.2924 206.968 53.9603 206.968 54.8119C206.968 55.6969 206.71 56.44 206.192 57.0411C205.691 57.6255 204.99 58.0597 204.088 58.3436C203.186 58.6274 202.151 58.7694 200.982 58.7694Z" fill="#F6F0ED"/>
<path d="M190.315 58.9197C189.33 58.9197 188.562 58.6608 188.011 58.1432C187.46 57.6088 187.184 56.9075 187.184 56.0392C187.184 55.1542 187.468 54.4362 188.036 53.8852C188.604 53.3341 189.363 53.0586 190.315 53.0586C191.25 53.0586 191.993 53.3341 192.544 53.8852C193.112 54.4195 193.396 55.1292 193.396 56.0142C193.396 56.8825 193.129 57.5838 192.595 58.1181C192.06 58.6525 191.3 58.9197 190.315 58.9197Z" fill="#F6F0ED"/>
<path d="M173.95 51.9315C173.95 50.6124 174.209 49.4518 174.727 48.4499C175.261 47.4481 176.012 46.6632 176.981 46.0955C177.966 45.5278 179.135 45.2439 180.488 45.2439C181.54 45.2439 182.483 45.4359 183.318 45.82C184.169 46.204 184.837 46.7217 185.322 47.3729C185.806 48.0074 186.048 48.7088 186.048 49.4769C186.048 50.2784 185.814 50.8461 185.347 51.1801C184.879 51.5141 184.186 51.681 183.268 51.681H178.008C178.008 52.1152 178.175 52.4742 178.509 52.7581C178.859 53.0419 179.444 53.1839 180.262 53.1839C180.68 53.1839 181.064 53.1421 181.414 53.0586C181.782 52.9752 182.149 52.9 182.516 52.8332C182.9 52.7497 183.326 52.708 183.794 52.708C184.462 52.708 185.013 52.9501 185.447 53.4344C185.881 53.9019 186.098 54.5531 186.098 55.388C186.098 56.3732 185.589 57.1414 184.57 57.6924C183.568 58.2434 182.249 58.519 180.613 58.519C179.461 58.519 178.375 58.2935 177.357 57.8427C176.355 57.3918 175.537 56.6822 174.902 55.7137C174.267 54.7285 173.95 53.4678 173.95 51.9315ZM182.066 50.8545C182.316 50.8545 182.399 50.7376 182.316 50.5038C182.249 50.27 182.049 50.0279 181.715 49.7775C181.381 49.527 180.897 49.4017 180.262 49.4017C179.527 49.4017 178.976 49.5604 178.609 49.8776C178.258 50.1949 178.083 50.5205 178.083 50.8545H182.066Z" fill="#F6F0ED"/>
<path d="M165.083 58.4438C164.298 58.4438 163.688 58.2183 163.254 57.7675C162.82 57.3166 162.603 56.7489 162.603 56.0643V47.8488C162.603 47.1307 162.82 46.538 163.254 46.0704C163.688 45.5862 164.298 45.344 165.083 45.344C165.868 45.344 166.469 45.5862 166.886 46.0704C167.304 46.538 167.512 47.114 167.512 47.7987V48.3247H167.988C168.055 47.4397 168.389 46.7133 168.99 46.1456C169.591 45.5778 170.301 45.2939 171.119 45.2939C171.937 45.2939 172.58 45.5444 173.048 46.0454C173.532 46.5463 173.774 47.2142 173.774 48.0491C173.774 48.834 173.549 49.4852 173.098 50.0028C172.647 50.5205 172.071 50.7793 171.37 50.7793C170.785 50.7793 170.293 50.6457 169.892 50.3785C169.508 50.0947 169.224 49.7691 169.04 49.4017C168.506 49.3349 168.113 49.3934 167.863 49.577C167.629 49.744 167.512 50.0863 167.512 50.604V56.0643C167.512 56.7489 167.304 57.3166 166.886 57.7675C166.469 58.2183 165.868 58.4438 165.083 58.4438Z" fill="#F6F0ED"/>
<path d="M152.514 58.4437C151.279 58.4437 150.31 58.1097 149.609 57.4418C148.924 56.7738 148.582 55.8387 148.582 54.6365C148.582 53.4342 148.983 52.5659 149.784 52.0316C150.586 51.4805 151.613 51.205 152.865 51.205C153.6 51.205 154.268 51.2551 154.869 51.3553C155.47 51.4555 156.012 51.5974 156.497 51.7811H156.572V51.4054C156.572 51.0213 156.43 50.7208 156.146 50.5037C155.862 50.2699 155.503 50.1614 155.069 50.1781C154.652 50.1781 154.293 50.2031 153.992 50.2532C153.708 50.3033 153.349 50.3868 152.915 50.5037C152.113 50.7041 151.42 50.6874 150.836 50.4536C150.252 50.2198 149.851 49.7606 149.634 49.076C149.433 48.358 149.475 47.7568 149.759 47.2726C150.06 46.7883 150.51 46.4126 151.112 46.1455C151.629 45.895 152.205 45.6863 152.84 45.5193C153.491 45.3523 154.192 45.2688 154.944 45.2688C157.131 45.2688 158.734 45.8031 159.753 46.8718C160.788 47.9238 161.306 49.6938 161.306 52.1818V56.0642C161.306 56.7488 161.097 57.3165 160.68 57.7674C160.262 58.2182 159.686 58.4437 158.951 58.4437C158.15 58.4437 157.549 58.2182 157.148 57.7674C156.764 57.3165 156.572 56.7655 156.572 56.1143V55.5382H156.071C156.071 55.9723 155.987 56.4148 155.82 56.8657C155.67 57.3165 155.345 57.6922 154.844 57.9928C154.359 58.2934 153.583 58.4437 152.514 58.4437ZM152.765 52.9583C152.765 53.2422 152.865 53.4426 153.065 53.5594C153.282 53.6763 153.742 53.7348 154.443 53.7348C155.077 53.7348 155.52 53.6763 155.77 53.5594C156.021 53.4426 156.146 53.2422 156.146 52.9583C156.146 52.6911 156.021 52.5075 155.77 52.4073C155.52 52.2904 155.077 52.2319 154.443 52.2319C153.742 52.2319 153.282 52.2904 153.065 52.4073C152.865 52.5075 152.765 52.6911 152.765 52.9583Z" fill="#F6F0ED"/>
<path d="M140.774 63.6035C139.756 63.6035 138.887 63.4949 138.169 63.2778C137.468 63.0608 136.792 62.7268 136.141 62.276C135.573 61.8752 135.172 61.3158 134.938 60.5978C134.705 59.8798 134.821 59.1534 135.289 58.4187C135.59 57.9678 135.924 57.6589 136.291 57.4919C136.675 57.3249 137.042 57.2581 137.393 57.2915C137.76 57.3082 138.078 57.3834 138.345 57.517C138.929 57.8008 139.38 58.0096 139.697 58.1432C140.031 58.26 140.407 58.3185 140.824 58.3185C141.442 58.3185 141.96 58.1014 142.377 57.6673C142.812 57.2331 143.029 56.6236 143.029 55.8388V53.81H142.578C142.461 54.695 142.119 55.3963 141.551 55.9139C141 56.4149 140.24 56.6654 139.271 56.6654C138.537 56.6654 137.819 56.4817 137.117 56.1143C136.416 55.747 135.84 55.1625 135.389 54.361C134.938 53.5595 134.713 52.4992 134.713 51.18C134.713 49.243 135.139 47.7986 135.99 46.8468C136.842 45.895 137.944 45.4191 139.297 45.4191C140.232 45.4191 141.033 45.7364 141.701 46.3709C142.369 46.9888 142.703 47.8571 142.703 48.9758L142.778 48.9508V47.5482C142.778 46.9637 142.962 46.4544 143.329 46.0203C143.713 45.5694 144.306 45.344 145.108 45.344C145.959 45.344 146.569 45.5694 146.936 46.0203C147.32 46.4544 147.512 46.9637 147.512 47.5482L147.537 55.438C147.554 57.1747 147.337 58.6524 146.886 59.8714C146.452 61.0904 145.734 62.0171 144.732 62.6517C143.747 63.2862 142.427 63.6035 140.774 63.6035ZM138.921 50.7542C138.921 51.6559 139.522 52.1068 140.724 52.1068C141.509 52.1068 142.06 51.9982 142.377 51.7811C142.695 51.5641 142.853 51.2218 142.853 50.7542C142.853 50.27 142.686 49.936 142.352 49.7523C142.035 49.5686 141.484 49.4768 140.699 49.4768C140.131 49.4768 139.689 49.5686 139.372 49.7523C139.071 49.936 138.921 50.27 138.921 50.7542Z" fill="#F6F0ED"/>
<path d="M126.905 63.6035C125.887 63.6035 125.019 63.4949 124.301 63.2778C123.599 63.0608 122.923 62.7268 122.272 62.276C121.704 61.8752 121.303 61.3158 121.069 60.5978C120.836 59.8798 120.953 59.1534 121.42 58.4187C121.721 57.9678 122.055 57.6589 122.422 57.4919C122.806 57.3249 123.173 57.2581 123.524 57.2915C123.891 57.3082 124.209 57.3834 124.476 57.517C125.06 57.8008 125.511 58.0096 125.828 58.1432C126.162 58.26 126.538 58.3185 126.956 58.3185C127.573 58.3185 128.091 58.1014 128.508 57.6673C128.943 57.2331 129.16 56.6236 129.16 55.8388V53.81H128.709C128.592 54.695 128.25 55.3963 127.682 55.9139C127.131 56.4149 126.371 56.6654 125.403 56.6654C124.668 56.6654 123.95 56.4817 123.249 56.1143C122.547 55.747 121.971 55.1625 121.52 54.361C121.069 53.5595 120.844 52.4992 120.844 51.18C120.844 49.243 121.27 47.7986 122.121 46.8468C122.973 45.895 124.075 45.4191 125.428 45.4191C126.363 45.4191 127.164 45.7364 127.832 46.3709C128.5 46.9888 128.834 47.8571 128.834 48.9758L128.909 48.9508V47.5482C128.909 46.9637 129.093 46.4544 129.46 46.0203C129.844 45.5694 130.437 45.344 131.239 45.344C132.09 45.344 132.7 45.5694 133.067 46.0203C133.451 46.4544 133.643 46.9637 133.643 47.5482L133.668 55.438C133.685 57.1747 133.468 58.6524 133.017 59.8714C132.583 61.0904 131.865 62.0171 130.863 62.6517C129.878 63.2862 128.559 63.6035 126.905 63.6035ZM125.052 50.7542C125.052 51.6559 125.653 52.1068 126.855 52.1068C127.64 52.1068 128.191 51.9982 128.508 51.7811C128.826 51.5641 128.984 51.2218 128.984 50.7542C128.984 50.27 128.817 49.936 128.483 49.7523C128.166 49.5686 127.615 49.4768 126.83 49.4768C126.263 49.4768 125.82 49.5686 125.503 49.7523C125.202 49.936 125.052 50.27 125.052 50.7542Z" fill="#F6F0ED"/>
<path d="M113.415 58.4939C111.461 58.4939 109.9 57.9178 108.731 56.7656C107.579 55.5968 107.002 53.952 107.002 51.8313C107.002 50.5289 107.27 49.385 107.804 48.3999C108.338 47.4147 109.081 46.6465 110.033 46.0955C111.002 45.5278 112.129 45.2439 113.415 45.2439C114.851 45.2439 116.045 45.5278 116.996 46.0955C117.948 46.6465 118.658 47.4147 119.125 48.3999C119.61 49.385 119.852 50.5289 119.852 51.8313C119.852 53.952 119.317 55.5968 118.249 56.7656C117.197 57.9178 115.585 58.4939 113.415 58.4939ZM109.983 51.4055C109.983 51.9232 110.242 52.2905 110.76 52.5076C111.277 52.708 112.162 52.8082 113.415 52.8082C114.667 52.8082 115.552 52.708 116.07 52.5076C116.587 52.2905 116.846 51.9232 116.846 51.4055C116.846 50.9046 116.587 50.5539 116.07 50.3535C115.552 50.1532 114.667 50.053 113.415 50.053C112.162 50.053 111.277 50.1532 110.76 50.3535C110.242 50.5539 109.983 50.9046 109.983 51.4055Z" fill="#F6F0ED"/>
<path d="M103.538 58.4438C102.719 58.4438 102.102 58.2267 101.684 57.7925C101.283 57.3584 101.083 56.8157 101.083 56.1645V41.6371C101.083 40.919 101.283 40.3262 101.684 39.8587C102.102 39.3744 102.719 39.1323 103.538 39.1323C104.272 39.1323 104.84 39.3744 105.241 39.8587C105.642 40.3262 105.842 40.9023 105.842 41.587V56.1645C105.842 56.8157 105.642 57.3584 105.241 57.7925C104.84 58.2267 104.272 58.4438 103.538 58.4438Z" fill="#F6F0ED"/>
<path d="M95.6145 58.4438C94.7796 58.4438 94.1033 58.2684 93.5857 57.9178C93.0847 57.5671 92.7174 57.1079 92.4836 56.5402C92.2498 55.9557 92.1162 55.3296 92.0828 54.6616H91.6069V56.0643C91.6069 56.7489 91.3982 57.3166 90.9808 57.7675C90.5633 58.2183 89.9872 58.4438 89.2525 58.4438C88.4844 58.4438 87.8999 58.2183 87.4992 57.7675C87.1151 57.3166 86.9231 56.7489 86.9231 56.0643V41.6371C86.9231 40.919 87.1151 40.3262 87.4992 39.8587C87.8832 39.3744 88.4677 39.1323 89.2525 39.1323C90.0373 39.1323 90.6217 39.3744 91.0058 39.8587C91.4066 40.3262 91.6069 40.9023 91.6069 41.587V49.1763L91.7071 49.2013C91.8741 48.5 92.0828 47.8571 92.3333 47.2727C92.6005 46.6883 92.9929 46.2207 93.5105 45.87C94.0282 45.5194 94.7462 45.344 95.6646 45.344C97.0839 45.344 98.1693 45.9285 98.9207 47.0974C99.6722 48.2495 100.048 49.7941 100.048 51.7311C100.048 53.952 99.6638 55.6301 98.8957 56.7656C98.1443 57.8844 97.0505 58.4438 95.6145 58.4438ZM91.5568 51.5307C91.5568 51.6142 91.5568 51.6977 91.5568 51.7812C91.5735 51.848 91.5902 51.9231 91.6069 52.0066C91.6904 52.3573 91.8908 52.6245 92.2081 52.8081C92.542 52.9751 93.0597 53.0586 93.761 53.0586C94.5959 53.0586 95.1637 52.9334 95.4642 52.6829C95.7815 52.4324 95.9401 52.0484 95.9401 51.5307C95.9401 50.9964 95.7898 50.604 95.4893 50.3535C95.1887 50.103 94.621 49.9778 93.786 49.9778C93.068 49.9778 92.542 50.0696 92.2081 50.2533C91.8908 50.4203 91.6904 50.6875 91.6069 51.0548C91.5902 51.1216 91.5735 51.1968 91.5568 51.2803C91.5568 51.347 91.5568 51.4305 91.5568 51.5307Z" fill="#F6F0ED"/>
<path d="M75.6549 58.4437C74.9202 58.4437 74.3274 58.2266 73.8766 57.7925C73.4424 57.3416 73.2253 56.7906 73.2253 56.1394V47.8487C73.2253 47.1474 73.4341 46.5546 73.8515 46.0704C74.269 45.5861 74.8701 45.344 75.6549 45.344C76.423 45.344 77.0075 45.5861 77.4082 46.0704C77.809 46.5546 78.0094 47.1641 78.0094 47.8988V49.1512H78.4602C78.4602 48.1994 78.6272 47.448 78.9612 46.8969C79.3118 46.3459 79.7543 45.9535 80.2887 45.7197C80.823 45.4692 81.3574 45.344 81.8917 45.344C83.1775 45.344 84.1209 45.8115 84.722 46.7466C85.3232 47.665 85.6237 48.9758 85.6237 50.6791V56.1394C85.6237 56.7906 85.4067 57.3416 84.9725 57.7925C84.5384 58.2266 83.9539 58.4437 83.2192 58.4437C82.4678 58.4437 81.8667 58.2266 81.4158 57.7925C80.9816 57.3416 80.7646 56.7906 80.7646 56.1394V51.706C80.7646 51.1049 80.6477 50.6373 80.4139 50.3034C80.1968 49.9694 79.8712 49.8024 79.4371 49.8024C78.9361 49.8024 78.5688 49.9861 78.335 50.3534C78.1179 50.7208 78.0094 51.1884 78.0094 51.7561V56.1394C78.0094 56.7906 77.8006 57.3416 77.3832 57.7925C76.9657 58.2266 76.3897 58.4437 75.6549 58.4437Z" fill="#F6F0ED"/>
<path d="M63.6215 58.4438C62.8367 58.4438 62.2272 58.2183 61.7931 57.7675C61.3589 57.3166 61.1418 56.7489 61.1418 56.0643V47.8488C61.1418 47.1307 61.3589 46.538 61.7931 46.0704C62.2272 45.5862 62.8367 45.344 63.6215 45.344C64.4063 45.344 65.0075 45.5862 65.4249 46.0704C65.8424 46.538 66.0511 47.114 66.0511 47.7987V48.3247H66.527C66.5938 47.4397 66.9278 46.7133 67.5289 46.1456C68.13 45.5778 68.8397 45.2939 69.6579 45.2939C70.4761 45.2939 71.119 45.5444 71.5866 46.0454C72.0708 46.5463 72.3129 47.2142 72.3129 48.0491C72.3129 48.834 72.0875 49.4852 71.6367 50.0028C71.1858 50.5205 70.6097 50.7793 69.9084 50.7793C69.324 50.7793 68.8314 50.6457 68.4306 50.3785C68.0465 50.0947 67.7627 49.7691 67.579 49.4017C67.0447 49.3349 66.6522 49.3934 66.4018 49.577C66.168 49.744 66.0511 50.0863 66.0511 50.604V56.0643C66.0511 56.7489 65.8424 57.3166 65.4249 57.7675C65.0075 58.2183 64.4063 58.4438 63.6215 58.4438Z" fill="#F6F0ED"/>
<path d="M51.0535 58.4437C49.8179 58.4437 48.8494 58.1097 48.148 57.4418C47.4634 56.7738 47.1211 55.8387 47.1211 54.6365C47.1211 53.4342 47.5219 52.5659 48.3234 52.0316C49.1249 51.4805 50.1518 51.205 51.4042 51.205C52.1389 51.205 52.8068 51.2551 53.408 51.3553C54.0091 51.4555 54.5518 51.5974 55.036 51.7811H55.1112V51.4054C55.1112 51.0213 54.9692 50.7208 54.6854 50.5037C54.4015 50.2699 54.0425 50.1614 53.6083 50.1781C53.1909 50.1781 52.8319 50.2031 52.5313 50.2532C52.2474 50.3033 51.8884 50.3868 51.4543 50.5037C50.6528 50.7041 49.9598 50.6874 49.3754 50.4536C48.7909 50.2198 48.3902 49.7606 48.1731 49.076C47.9727 48.358 48.0144 47.7568 48.2983 47.2726C48.5989 46.7883 49.0497 46.4126 49.6509 46.1455C50.1685 45.895 50.7446 45.6863 51.3791 45.5193C52.0304 45.3523 52.7317 45.2688 53.4831 45.2688C55.6706 45.2688 57.2736 45.8031 58.2922 46.8718C59.3275 47.9238 59.8451 49.6938 59.8451 52.1818V56.0642C59.8451 56.7488 59.6364 57.3165 59.2189 57.7674C58.8015 58.2182 58.2254 58.4437 57.4907 58.4437C56.6892 58.4437 56.088 58.2182 55.6873 57.7674C55.3032 57.3165 55.1112 56.7655 55.1112 56.1143V55.5382H54.6102C54.6102 55.9723 54.5267 56.4148 54.3598 56.8657C54.2095 57.3165 53.8839 57.6922 53.3829 57.9928C52.8987 58.2934 52.1222 58.4437 51.0535 58.4437ZM51.304 52.9583C51.304 53.2422 51.4042 53.4426 51.6046 53.5594C51.8216 53.6763 52.2808 53.7348 52.9822 53.7348C53.6167 53.7348 54.0592 53.6763 54.3097 53.5594C54.5601 53.4426 54.6854 53.2422 54.6854 52.9583C54.6854 52.6911 54.5601 52.5075 54.3097 52.4073C54.0592 52.2904 53.6167 52.2319 52.9822 52.2319C52.2808 52.2319 51.8216 52.2904 51.6046 52.4073C51.4042 52.5075 51.304 52.6911 51.304 52.9583Z" fill="#F6F0ED"/>
<path d="M36.1244 58.594C34.7885 58.594 33.628 58.2099 32.6428 57.4418C31.6576 56.657 30.8979 55.5883 30.3635 54.2357C29.8292 52.8665 29.562 51.3219 29.562 49.602C29.562 47.999 29.7958 46.5963 30.2633 45.394C30.7476 44.1751 31.3988 43.1648 32.217 42.3633C33.0519 41.5451 34.0121 40.9356 35.0975 40.5349C36.1995 40.1174 37.3601 39.9087 38.579 39.9087C40.8166 39.9087 42.4697 40.226 43.5384 40.8605C44.6238 41.4783 45.1665 42.2798 45.1665 43.265C45.1665 44.0331 44.9661 44.7094 44.5653 45.2939C44.1813 45.8783 43.5968 46.1705 42.812 46.1705C42.2777 46.1705 41.7684 46.1204 41.2841 46.0202C40.8166 45.92 40.3323 45.8282 39.8314 45.7447C39.3471 45.6445 38.8045 45.5944 38.2033 45.5944C36.8842 45.5944 35.9324 45.9701 35.3479 46.7215C34.7802 47.473 34.4963 48.4164 34.4963 49.5519C34.4963 50.4703 34.68 51.2217 35.0474 51.8061C35.4314 52.3906 35.9324 52.8247 36.5502 53.1086C37.1847 53.3758 37.8861 53.5094 38.6542 53.5094C39.2887 53.5094 39.8815 53.3674 40.4325 53.0836C40.9836 52.7997 41.3342 52.2737 41.4845 51.5056H40.2572C39.6728 51.5056 39.2219 51.3302 38.9046 50.9796C38.5874 50.6122 38.4287 50.1447 38.4287 49.5769C38.4287 49.0092 38.5874 48.55 38.9046 48.1993C39.2219 47.8487 39.6728 47.6733 40.2572 47.6733H43.2629C44.3483 47.6733 45.108 47.9656 45.5422 48.55C45.993 49.1177 46.2184 49.9693 46.2184 51.1048V55.7887C46.2184 56.657 45.9847 57.3165 45.5171 57.7674C45.0496 58.2182 44.4317 58.4437 43.6636 58.4437C42.8454 58.4437 42.2025 58.2182 41.735 57.7674C41.2674 57.3165 41.0337 56.657 41.0337 55.7887V54.2357H40.5828C40.5828 55.7553 40.1988 56.8657 39.4306 57.567C38.6625 58.2516 37.6356 58.594 36.3498 58.594H36.1244Z" fill="#F6F0ED"/>
<defs>
<clipPath id="clip0_20_1713">
<rect width="71.0038" height="61.5824" fill="white"/>
</clipPath>
</defs>
</svg>
